<svg width="22.000000" height="21.000977" viewBox="0 0 22 21.001" fill="none" xmlns="http://www.w3.org/2000/svg" xmlns:xlink="http://www.w3.org/1999/xlink">
	<desc>
			Created with Pixso.
	</desc>
	<defs/>
	<path id="合并" d="M19.0692 2.93082C17.2589 1.12054 14.7589 0 12 0L12 10L22 9.99988C21.9973 7.43985 21.022 4.87973 19.0692 2.93082ZM20.0005 11C20.0005 13.3563 19.1831 15.5237 17.8169 17.2339C16.3497 19.0771 14.3593 20.2621 12.2249 20.7473C9.92847 21.2736 7.63354 20.959 5.66223 20.0075C3.5387 18.9873 1.94055 17.3105 0.992554 15.3375C-0.0314941 13.2159 -0.235596 10.9085 0.253418 8.77484C0.775513 6.47757 2.05469 4.54639 3.76733 3.18311C5.60779 1.71255 7.81201 1.00021 10.0005 1L10.0005 11L20.0005 11Z" clip-rule="evenodd" fill="#000000" fill-opacity="0.400000" fill-rule="evenodd"/>
</svg>
